<svg width="24" height="24" viewBox="0 0 24 24" fill="none" xmlns="http://www.w3.org/2000/svg">
<circle cx="12" cy="12" r="12" fill="#706C8D"/>
<rect x="4.78498" y="3" width="14.2797" height="14.2797" fill="white"/>
<path d="M19.3979 3H4.41786C3.63366 3 3 3.63307 3 4.41607V18.5845C3 19.3651 3.63366 20 4.41786 20H19.3979C20.1785 20 20.8139 19.3657 20.8139 18.5845V4.41607C20.8133 3.63307 20.1779 3 19.3979 3ZM14.9741 8.04728C14.6058 7.8319 14.3137 7.66173 13.9466 7.66173C13.5872 7.66173 13.2802 7.75157 13.1231 7.9027C12.9661 8.05264 12.8881 8.34299 12.8881 8.77198V9.40683H14.8093L14.3934 11.1728H12.8881V17.0405H10.4748V11.1728H9.34852V9.40683H10.476V8.73271C10.476 8.02289 10.5611 7.59807 10.7289 7.24762C10.8961 6.89836 11.2204 6.50924 11.6714 6.28909C12.1218 6.06954 12.7881 5.95888 13.4777 5.95888C14.1846 5.95888 14.7367 6.19449 15.4138 6.38429L14.9741 8.04728Z" fill="#706C8D"/>
</svg>
