<svg width="24" height="24" viewBox="0 0 24 24" fill="none" xmlns="http://www.w3.org/2000/svg">
<circle cx="12" cy="12" r="12" fill="#706C8D"/>
<path fill-rule="evenodd" clip-rule="evenodd" d="M11.753 5C8.02389 5 5 7.98377 5 11.6645C5 14.6092 6.93493 17.1073 9.61811 17.9886C9.95558 18.0502 10.0795 17.844 10.0795 17.6679C10.0795 17.509 10.0732 16.984 10.0704 16.4271C8.19162 16.8303 7.7952 15.6408 7.7952 15.6408C7.48801 14.8705 7.04541 14.6657 7.04541 14.6657C6.43274 14.252 7.09159 14.2605 7.09159 14.2605C7.76972 14.3075 8.12679 14.9473 8.12679 14.9473C8.72908 15.9662 9.70655 15.6716 10.0919 15.5013C10.1525 15.0705 10.3275 14.7766 10.5206 14.6102C9.02074 14.4416 7.44395 13.8701 7.44395 11.3165C7.44395 10.5889 7.70775 9.99434 8.13977 9.52763C8.06965 9.35975 7.83852 8.68192 8.20518 7.76393C8.20518 7.76393 8.77225 7.5848 10.0627 8.44708C10.6014 8.29937 11.1791 8.22536 11.753 8.22285C12.3269 8.22536 12.905 8.29937 13.4447 8.44708C14.7336 7.5848 15.2999 7.76393 15.2999 7.76393C15.6675 8.68192 15.4362 9.35975 15.3661 9.52763C15.7991 9.99434 16.0611 10.5888 16.0611 11.3165C16.0611 13.8762 14.4813 14.4399 12.9776 14.6048C13.2198 14.8117 13.4356 15.2173 13.4356 15.839C13.4356 16.7307 13.4278 17.4484 13.4278 17.6679C13.4278 17.8453 13.5493 18.0531 13.8917 17.9877C16.5734 17.1054 18.5059 14.6082 18.5059 11.6645C18.5059 7.98377 15.4824 5 11.753 5Z" fill="white"/>
<path d="M7.5325 14.4919C7.51778 14.5251 7.4653 14.5351 7.41761 14.5123C7.36898 14.4905 7.34163 14.4452 7.35741 14.4118C7.37187 14.3777 7.42434 14.3681 7.47288 14.3911C7.52162 14.4128 7.54938 14.4586 7.5325 14.4919ZM7.86229 14.7854C7.83032 14.8149 7.7678 14.8012 7.72537 14.7545C7.68152 14.7079 7.67332 14.6456 7.70576 14.6155C7.73873 14.586 7.79935 14.5998 7.84331 14.6465C7.88716 14.6936 7.89568 14.7555 7.86224 14.7854L7.86229 14.7854ZM8.08855 15.1608C8.04743 15.1893 7.98023 15.1626 7.93875 15.1032C7.89768 15.0437 7.89768 14.9724 7.93964 14.9438C7.98128 14.9153 8.04743 14.941 8.0895 15C8.13051 15.0604 8.13051 15.1317 8.0885 15.1609L8.08855 15.1608ZM8.47113 15.5957C8.43438 15.6361 8.35614 15.6253 8.29882 15.5701C8.24025 15.5162 8.22389 15.4397 8.26075 15.3993C8.29793 15.3588 8.37664 15.3702 8.43438 15.4249C8.49258 15.4787 8.51036 15.5558 8.47118 15.5957H8.47113ZM8.9656 15.7425C8.94946 15.7949 8.87406 15.8187 8.79813 15.7965C8.72231 15.7735 8.67267 15.7122 8.68798 15.6593C8.70375 15.6066 8.77947 15.5818 8.85597 15.6056C8.93169 15.6284 8.98143 15.6893 8.96566 15.7425H8.9656ZM9.52843 15.8048C9.53033 15.86 9.46592 15.9057 9.3862 15.9067C9.30602 15.9084 9.24118 15.8638 9.24034 15.8096C9.24034 15.7539 9.30328 15.7086 9.38342 15.7073C9.46313 15.7057 9.52843 15.75 9.52843 15.8048ZM10.0813 15.7837C10.0908 15.8375 10.0354 15.8927 9.95629 15.9074C9.87847 15.9216 9.80643 15.8884 9.79649 15.835C9.78682 15.7799 9.84329 15.7247 9.92095 15.7103C10.0002 15.6966 10.0712 15.729 10.0813 15.7837Z" fill="white"/>
</svg>
