<svg width="24" height="24" viewBox="0 0 24 24" fill="none" xmlns="http://www.w3.org/2000/svg">
<circle cx="12" cy="12" r="12" fill="#706C8D"/>
<path d="M5 5.07227C5 4.48633 5.50005 4 6.11775 4H18.9425C19.5602 4 20.0602 4.48047 20.0602 5.07227V17.9277C20.0602 18.5137 19.5602 19 18.9425 19H6.11775C5.50005 19 5 18.5195 5 17.9277V5.07227Z" fill="#706C8D"/>
<path d="M9.57701 16.5514V9.80139H7.32386V16.5514H9.57701ZM8.45337 8.87561C9.2358 8.87561 9.72408 8.35999 9.72408 7.70959C9.71232 7.04749 9.2358 6.54358 8.47102 6.54358C7.70036 6.54358 7.19443 7.04749 7.19443 7.71545C7.19443 8.35999 7.68271 8.88147 8.44161 8.88147H8.45337V8.87561ZM10.8242 16.5514H13.0773V12.7897C13.0773 12.5846 13.095 12.3795 13.1538 12.2389C13.3127 11.8405 13.6833 11.4186 14.3069 11.4186C15.1246 11.4186 15.4482 12.0397 15.4482 12.942V16.5573H17.7072V12.6901C17.7072 10.6158 16.5953 9.64319 15.1187 9.64319C14.7049 9.62727 14.2947 9.72555 13.9334 9.92718C13.5722 10.1288 13.2739 10.4259 13.0715 10.7858H13.0832V9.80139H10.8242C10.8536 10.4342 10.8242 16.5514 10.8242 16.5514Z" fill="white"/>
</svg>
